<svg width="118" height="36" viewBox="0 0 118 36" fill="none" xmlns="http://www.w3.org/2000/svg">
<rect width="36" height="36" rx="8" fill="#00BBA7"/>
<g clip-path="url(#clip0_4739_756)">
<path opacity="0.4" d="M26.1682 6H14.0005C12.4341 6 11.0673 7.084 10.7458 8.61695C8.73138 18.2195 9.18216 22.5852 11.0207 28.2346C11.2149 28.8313 11.5847 29.3597 12.0714 29.7559C21.2082 37.195 26.3809 40.4802 30.374 30.7984C30.7937 29.7808 30.5982 28.6229 30.0218 27.685C26.8272 22.4874 27.0734 17.8211 29.4071 10.5635C30.1244 8.33255 28.5116 6 26.1682 6Z" fill="url(#paint0_linear_4739_756)"/>
<path d="M23.7425 7.15729H11.5748C10.0085 7.15729 8.64166 8.24129 8.32009 9.77424C6.30569 19.3768 6.75647 23.7425 8.59505 29.3919C8.78925 29.9886 9.15904 30.517 9.64568 30.9132C18.7825 38.3523 23.9552 41.6375 27.9483 31.9557C28.368 30.9381 28.1725 29.7801 27.5961 28.8423C24.4015 23.6447 24.6477 18.9784 26.9814 11.7208C27.6987 9.48984 26.0859 7.15729 23.7425 7.15729Z" fill="url(#paint1_linear_4739_756)"/>
</g>
<path d="M45.6 25V10.8H55.1V13.06H48.2V16.94H54.74V19.18H48.2V25H45.6ZM61.5048 25.24C60.4382 25.24 59.5115 25.0133 58.7248 24.56C57.9382 24.0933 57.3248 23.4467 56.8848 22.62C56.4582 21.78 56.2448 20.7933 56.2448 19.66C56.2448 18.5267 56.4582 17.5467 56.8848 16.72C57.3248 15.88 57.9382 15.2333 58.7248 14.78C59.5115 14.3133 60.4382 14.08 61.5048 14.08C62.5582 14.08 63.4782 14.3133 64.2648 14.78C65.0515 15.2333 65.6582 15.88 66.0848 16.72C66.5248 17.5467 66.7448 18.5267 66.7448 19.66C66.7448 20.7933 66.5248 21.78 66.0848 22.62C65.6582 23.4467 65.0515 24.0933 64.2648 24.56C63.4782 25.0133 62.5582 25.24 61.5048 25.24ZM61.5048 23.16C62.3182 23.16 62.9515 22.8533 63.4048 22.24C63.8582 21.6267 64.0848 20.7667 64.0848 19.66C64.0848 18.5533 63.8582 17.6933 63.4048 17.08C62.9515 16.4667 62.3182 16.16 61.5048 16.16C60.6782 16.16 60.0382 16.4667 59.5848 17.08C59.1315 17.6933 58.9048 18.5533 58.9048 19.66C58.9048 20.7667 59.1315 21.6267 59.5848 22.24C60.0382 22.8533 60.6782 23.16 61.5048 23.16ZM68.7203 25V14.32H71.1203L71.1803 16.4C71.3936 15.68 71.707 15.1533 72.1203 14.82C72.5336 14.4867 73.0736 14.32 73.7403 14.32H74.7203V16.52H73.7203C72.907 16.52 72.2936 16.7067 71.8803 17.08C71.4803 17.44 71.2803 18.0267 71.2803 18.84V25H68.7203ZM76.2594 25V14.32H78.5794L78.6394 16.1C78.906 15.46 79.2927 14.9667 79.7994 14.62C80.3194 14.26 80.9127 14.08 81.5794 14.08C82.366 14.08 83.0194 14.2733 83.5394 14.66C84.0727 15.0467 84.4527 15.5867 84.6794 16.28C84.9194 15.56 85.2994 15.0133 85.8194 14.64C86.3527 14.2667 86.9927 14.08 87.7394 14.08C88.846 14.08 89.7127 14.4267 90.3394 15.12C90.9794 15.8133 91.2994 16.82 91.2994 18.14V25H88.7394V18.8C88.7394 17.04 88.1327 16.16 86.9194 16.16C86.306 16.16 85.826 16.4 85.4794 16.88C85.1327 17.3467 84.9594 18.0133 84.9594 18.88V25H82.5794V18.88C82.5794 18.0133 82.446 17.3467 82.1794 16.88C81.9127 16.4 81.4527 16.16 80.7994 16.16C80.186 16.16 79.6994 16.4 79.3394 16.88C78.9927 17.36 78.8194 18.0267 78.8194 18.88V25H76.2594ZM93.9156 25V14.32H96.4756V25H93.9156ZM93.8756 12.9V10.62H96.5356V12.9H93.8756ZM99.8013 25V16.58H98.2813V14.6H99.8013V13.9C99.8013 12.94 100.068 12.1867 100.601 11.64C101.148 11.08 101.981 10.8 103.101 10.8H105.181V12.78H103.581C102.781 12.78 102.381 13.2 102.381 14.04V14.6H105.041V16.58H102.381V25H99.8013ZM108.015 28V26.02H109.375C109.722 26.02 109.975 25.9667 110.135 25.86C110.309 25.7533 110.442 25.5733 110.535 25.32L110.835 24.58H110.095L106.275 14.32H108.935L111.615 22.18L114.175 14.32H116.835L112.655 26.12C112.415 26.7867 112.075 27.2667 111.635 27.56C111.209 27.8533 110.609 28 109.835 28H108.015Z" fill="#F8FAFC"/>
<defs>
<linearGradient id="paint0_linear_4739_756" x1="21.1626" y1="6" x2="15.8436" y2="21.361" gradientUnits="userSpaceOnUse">
<stop stop-color="#F8FAFC"/>
<stop offset="1" stop-color="#F8FAFC" stop-opacity="0"/>
</linearGradient>
<linearGradient id="paint1_linear_4739_756" x1="18.737" y1="7.15729" x2="18.737" y2="30.304" gradientUnits="userSpaceOnUse">
<stop stop-color="#F8FAFC"/>
<stop offset="1" stop-color="#F8FAFC" stop-opacity="0"/>
</linearGradient>
<clipPath id="clip0_4739_756">
<rect width="24" height="26.25" fill="white" transform="translate(6 4.875)"/>
</clipPath>
</defs>
</svg>
